name C:\Users\u0101727\Documents\MyRepositories\paper-ad\trackingsimulations_3d\Results\TrackSim\IK_c7.mot
datacolumns 32
datarows 7
range 3.85000000 3.94600000
endheader
time	pelvis_tilt	pelvis_list	pelvis_rotation	pelvis_tx	pelvis_ty	pelvis_tz	hip_flexion_l	hip_adduction_l	hip_rotation_l	hip_flexion_r	hip_adduction_r	hip_rotation_r	knee_angle_l	knee_angle_r	ankle_angle_l	ankle_angle_r	subtalar_angle_l	subtalar_angle_r	lumbar_extension	lumbar_bending	lumbar_rotation	arm_flex_l	arm_add_l	arm_rot_l	arm_flex_r	arm_add_r	arm_rot_r	elbow_flex_l	elbow_flex_r	pro_sup_l	pro_sup_r	
          3.85000000	          0.29820487	         -3.02260610	          7.10960949	          0.02606488	          0.92242758	         -0.22397440	        -11.50166580	         -4.77391246	          1.37725590	         26.52304107	          4.44590381	         -7.54759119	        -36.08651157	        -22.75558938	         -4.15856699	         -5.99386248	         13.33850448	        -10.99879428	         -3.96244042	          5.52631922	         -8.62337295	         -1.76285561	        -14.53205494	         19.20555227	         -9.28512963	        -15.61567021	         14.50113775	         22.96921979	         11.49066773	         86.51662706	         86.51662706	
          3.86600000	          0.45649753	         -4.05438929	          6.94079474	          0.04977060	          0.92319045	         -0.22271417	         -9.53097970	         -6.01082137	          1.23284249	         25.60965722	          5.87928437	         -7.47728492	        -40.34896567	        -24.04089542	        -10.31767592	         -4.01522701	         11.97838701	        -11.16149628	         -3.76848034	          6.85084956	         -8.18760661	         -2.26063128	        -14.03217486	         19.48225630	         -9.05930079	        -15.91005213	         14.48175603	         21.88371436	         11.81003032	         86.51662706	         86.51662706	
          3.88200000	          0.64910845	         -4.90133431	          6.86110335	          0.07261316	          0.92451842	         -0.22170980	         -7.20470822	         -6.86091299	          1.79730687	         24.32540512	          7.06557465	         -7.50978466	        -44.67799462	        -24.72931535	        -15.54090970	         -2.01235184	         10.74257486	        -10.96575797	         -3.75507024	          7.95918752	         -7.76903951	         -2.62348167	        -13.59606483	         19.90483336	         -8.72879729	        -16.20477046	         14.34732060	         20.84000832	         12.33116015	         86.51662706	         86.51662706	
          3.89800000	          0.86039659	         -5.59358531	          6.87918675	          0.09451772	          0.92637038	         -0.22092593	         -4.55500481	         -7.37086220	          2.78746786	         22.76532352	          8.05040398	         -7.60050784	        -49.14044081	        -24.89527831	        -18.17376982	         -0.18979750	          9.70752472	        -10.59263416	         -3.90288635	          8.87951589	         -7.35699838	         -2.83738840	        -13.24092695	         20.47404380	         -8.31039293	        -16.50236248	         14.11776188	         19.88662531	         13.08118386	         86.51662706	         86.51662706	
          3.91400000	          1.08626878	         -6.11457506	          7.01606040	          0.11558382	          0.92878150	         -0.22035900	         -1.69707853	         -7.54628605	          4.01230542	         20.98655632	          8.82275112	         -7.73275530	        -53.38541925	        -24.62417409	        -19.16287909	          1.37464154	          8.07400662	        -10.11976899	         -4.18287605	          9.58868439	         -6.97563538	         -2.92636298	        -12.98557350	         21.15427450	         -7.84469381	        -16.79890527	         13.81808763	         19.06404191	         14.08949125	         86.51662706	         86.51662706	
          3.93000000	          1.30399142	         -6.40759005	          7.26863654	          0.13596419	          0.93174416	         -0.21998443	          1.33795423	         -7.34194547	          5.39991988	         19.05706625	          9.32779134	         -7.89297383	        -57.32637437	        -24.02509018	        -18.54060115	          2.70119950	          6.42600759	         -9.55449527	         -4.54113222	         10.01393090	         -6.64522640	         -2.93362628	        -12.84570077	         21.87310693	         -7.37065122	        -17.08242195	         13.47486677	         18.39538790	         15.36366584	         86.51662706	         86.51662706	
          3.94600000	          1.48240456	         -6.45075966	          7.58457106	          0.15586023	          0.93514707	         -0.21971465	          4.48504178	         -6.76198842	          6.79463148	         17.04644183	          9.55528566	         -8.05997870	        -60.78374314	        -23.19795016	        -16.78913523	          3.82177524	          5.05967566	         -8.89797304	         -4.90973808	         10.12064562	         -6.34620409	         -2.91861701	        -12.82216986	         22.53708677	         -6.91918118	        -17.34839321	         13.10922661	         17.89997595	         16.87716331	         86.51662706	         86.51662706	
